<?xml version="1.0" encoding="UTF-8"?>
<svg id="_图层_1" xmlns="http://www.w3.org/2000/svg" version="1.1" viewBox="0 0 500 500">
  <!-- Generator: Adobe Illustrator 30.3.0, SVG Export Plug-In . SVG Version: 2.1.3 Build 182)  -->
  <defs>
    <style>
      .st0 {
        fill: #fff;
      }
    </style>
  </defs>
  <rect width="500" height="500"/>
  <g>
    <path class="st0" d="M250.06,413.35c-1.78,0-3.71-.15-5.49-.45-12.02-2.23-21.52-11.72-23.74-23.74l-15.58-82.52c-1.19-6.09-5.79-10.69-11.87-11.87l-82.52-15.58c-7.71-1.49-14.54-5.79-19-12.31-4.45-6.53-6.09-14.39-4.75-22.26,2.23-12.02,11.72-21.52,23.74-23.74l82.52-15.58c6.09-1.19,10.69-5.79,11.87-11.87l15.58-82.52c2.97-16.03,18.55-26.72,34.58-23.74,12.02,2.23,21.52,11.72,23.74,23.74l15.58,82.52c1.19,6.09,5.79,10.69,11.87,11.87l82.52,15.58c16.03,2.97,26.72,18.55,23.74,34.58-2.23,12.02-11.72,21.52-23.74,23.74l-82.52,15.58c-6.09,1.19-10.69,5.79-11.87,11.87l-15.58,82.52c-1.49,7.71-5.79,14.54-12.31,19-5.05,3.41-10.83,5.19-16.77,5.19h0ZM249.91,116.53h0l-15.58,82.52c-3.41,18.11-17.36,32.06-35.47,35.47l-82.52,15.58,82.52,15.58c18.11,3.41,32.06,17.36,35.47,35.47l15.58,82.52,15.58-82.52c3.41-18.11,17.36-32.06,35.47-35.47l82.52-15.58-82.52-15.58c-18.11-3.41-32.06-17.36-35.47-35.47l-15.58-82.52h0ZM235.36,113.71h0Z"/>
    <path class="st0" d="M368.64,175.9c-8.16,0-14.84-6.68-14.84-14.84v-59.37c0-8.16,6.68-14.84,14.84-14.84s14.84,6.68,14.84,14.84v59.36c0,8.16-6.68,14.84-14.84,14.84h0Z"/>
    <path class="st0" d="M398.31,146.22h-59.36c-8.16,0-14.84-6.68-14.84-14.84s6.68-14.84,14.84-14.84h59.36c8.16,0,14.84,6.68,14.84,14.84s-6.68,14.84-14.84,14.84Z"/>
    <path class="st0" d="M131.18,413.35c-24.49,0-44.53-20.04-44.53-44.53s20.04-44.53,44.53-44.53,44.53,20.04,44.53,44.53-20.04,44.53-44.53,44.53ZM131.18,353.99c-8.16,0-14.84,6.68-14.84,14.84s6.68,14.84,14.84,14.84,14.84-6.68,14.84-14.84-6.68-14.84-14.84-14.84Z"/>
  </g>
</svg>